# xmcd
#
# Track frame offsets:
#  150
#  13476
#  25095
#  35690
#  48179
#  58043
#  69578
#  83168
#  92544
#  104275
#
# Disc length: 1541 seconds
#
# Revision: 0
# Processed by: cddbd v1.5.1PL0 Copyright (c) Steve Scherf et al.
# Submitted via: Collectorz.com_Music_Collector 6.9
#
DISCID=7c06030a
DTITLE=Wilburn Brothers - I Walk The Line
DYEAR=1969
DGENRE=Country/Oldies
TTITLE0=I Walk The Line
TTITLE1=No Legal Right
TTITLE2=I'll Keep Right On Lovin' You
TTITLE3=The Wayward Wind
TTITLE4=Blue Blue Day
TTITLE5=The Big Heartbreak
TTITLE6=Empty Arms
TTITLE7=Sparlking Brown Eyes
TTITLE8=I Almost Lost My Mind
TTITLE9=Thirty Links Of Chain
EXTD=
EXTT0=
EXTT1=
EXTT2=
EXTT3=
EXTT4=
EXTT5=
EXTT6=
EXTT7=
EXTT8=
EXTT9=
PLAYORDER=
